<?xml version="1.0" encoding="UTF-8"?>
<svg xmlns="http://www.w3.org/2000/svg" xmlns:xlink="http://www.w3.org/1999/xlink" width="468pt" height="316pt" viewBox="0 0 468 316" version="1.1">
<defs>
<g>
<symbol overflow="visible" id="glyph0-0">
<path style="stroke:none;" d=""/>
</symbol>
<symbol overflow="visible" id="glyph0-1">
<path style="stroke:none;" d="M 4.546875 -4.984375 L 0.734375 -4.984375 L 0.734375 -3.84375 L 4.546875 -3.84375 Z M 4.546875 -4.984375 "/>
</symbol>
<symbol overflow="visible" id="glyph0-2">
<path style="stroke:none;" d="M 8.09375 -1.390625 L 2.125 -1.390625 C 2.265625 -2.359375 2.78125 -2.953125 4.171875 -3.8125 L 5.78125 -4.703125 C 7.359375 -5.578125 8.171875 -6.765625 8.171875 -8.1875 C 8.171875 -9.15625 7.796875 -10.046875 7.125 -10.671875 C 6.453125 -11.28125 5.609375 -11.5625 4.546875 -11.5625 C 3.109375 -11.5625 2.03125 -11.0625 1.40625 -10.0625 C 1.015625 -9.453125 0.828125 -8.734375 0.796875 -7.5625 L 2.203125 -7.5625 C 2.25 -8.359375 2.359375 -8.8125 2.546875 -9.203125 C 2.90625 -9.90625 3.640625 -10.34375 4.5 -10.34375 C 5.78125 -10.34375 6.734375 -9.40625 6.734375 -8.15625 C 6.734375 -7.234375 6.203125 -6.4375 5.203125 -5.859375 L 3.734375 -4.984375 C 1.359375 -3.625 0.671875 -2.546875 0.546875 -0.015625 L 8.09375 -0.015625 Z M 8.09375 -1.390625 "/>
</symbol>
<symbol overflow="visible" id="glyph0-3">
<path style="stroke:none;" d="M 4.140625 -8.234375 L 4.140625 0 L 5.546875 0 L 5.546875 -11.5625 L 4.625 -11.5625 C 4.125 -9.796875 3.8125 -9.546875 1.625 -9.265625 L 1.625 -8.234375 Z M 4.140625 -8.234375 "/>
</symbol>
<symbol overflow="visible" id="glyph0-4">
<path style="stroke:none;" d="M 4.40625 -11.5625 C 3.34375 -11.5625 2.390625 -11.09375 1.796875 -10.296875 C 1.0625 -9.28125 0.6875 -7.75 0.6875 -5.59375 C 0.6875 -1.703125 1.96875 0.375 4.40625 0.375 C 6.796875 0.375 8.109375 -1.703125 8.109375 -5.5 C 8.109375 -7.75 7.765625 -9.25 7.015625 -10.296875 C 6.421875 -11.109375 5.46875 -11.5625 4.40625 -11.5625 Z M 4.40625 -10.3125 C 5.921875 -10.3125 6.671875 -8.765625 6.671875 -5.625 C 6.671875 -2.34375 5.9375 -0.796875 4.375 -0.796875 C 2.875 -0.796875 2.125 -2.40625 2.125 -5.578125 C 2.125 -8.765625 2.875 -10.3125 4.40625 -10.3125 Z M 4.40625 -10.3125 "/>
</symbol>
<symbol overflow="visible" id="glyph0-5">
<path style="stroke:none;" d="M 3.53125 -5.328125 L 4.296875 -5.328125 C 5.84375 -5.328125 6.65625 -4.609375 6.65625 -3.21875 C 6.65625 -1.765625 5.78125 -0.875 4.3125 -0.875 C 2.765625 -0.875 2.015625 -1.65625 1.921875 -3.359375 L 0.515625 -3.359375 C 0.578125 -2.4375 0.734375 -1.828125 1.015625 -1.3125 C 1.59375 -0.1875 2.703125 0.375 4.25 0.375 C 6.59375 0.375 8.09375 -1.046875 8.09375 -3.234375 C 8.09375 -4.703125 7.53125 -5.5 6.171875 -5.984375 C 7.234375 -6.421875 7.765625 -7.21875 7.765625 -8.390625 C 7.765625 -10.375 6.46875 -11.5625 4.296875 -11.5625 C 2.015625 -11.5625 0.796875 -10.28125 0.75 -7.84375 L 2.15625 -7.84375 C 2.171875 -8.546875 2.234375 -8.9375 2.421875 -9.296875 C 2.734375 -9.953125 3.4375 -10.34375 4.3125 -10.34375 C 5.5625 -10.34375 6.3125 -9.578125 6.3125 -8.34375 C 6.3125 -7.515625 6.03125 -7.03125 5.40625 -6.75 C 5.03125 -6.59375 4.515625 -6.53125 3.53125 -6.515625 Z M 3.53125 -5.328125 "/>
</symbol>
<symbol overflow="visible" id="glyph0-6">
<path style="stroke:none;" d="M 5.234375 -2.796875 L 5.234375 0 L 6.640625 0 L 6.640625 -2.796875 L 8.3125 -2.796875 L 8.3125 -4.0625 L 6.640625 -4.0625 L 6.640625 -11.5625 L 5.59375 -11.5625 L 0.453125 -4.28125 L 0.453125 -2.796875 Z M 5.234375 -4.0625 L 1.6875 -4.0625 L 5.234375 -9.171875 Z M 5.234375 -4.0625 "/>
</symbol>
<symbol overflow="visible" id="glyph0-7">
<path style="stroke:none;" d="M 7.609375 -11.34375 L 1.765625 -11.34375 L 0.90625 -5.171875 L 2.203125 -5.171875 C 2.859375 -5.953125 3.40625 -6.21875 4.296875 -6.21875 C 5.828125 -6.21875 6.765625 -5.1875 6.765625 -3.5 C 6.765625 -1.875 5.828125 -0.875 4.28125 -0.875 C 3.0625 -0.875 2.296875 -1.5 1.96875 -2.78125 L 0.5625 -2.78125 C 0.75 -1.859375 0.90625 -1.40625 1.25 -0.984375 C 1.890625 -0.125 3.046875 0.375 4.3125 0.375 C 6.609375 0.375 8.203125 -1.296875 8.203125 -3.703125 C 8.203125 -5.9375 6.71875 -7.46875 4.546875 -7.46875 C 3.75 -7.46875 3.109375 -7.265625 2.453125 -6.78125 L 2.890625 -9.953125 L 7.609375 -9.953125 Z M 7.609375 -11.34375 "/>
</symbol>
<symbol overflow="visible" id="glyph0-8">
<path style="stroke:none;" d="M 4.671875 -4.34375 L 7.484375 -8.390625 L 5.984375 -8.390625 L 3.96875 -5.34375 L 1.953125 -8.390625 L 0.4375 -8.390625 L 3.234375 -4.265625 L 0.265625 0 L 1.796875 0 L 3.921875 -3.21875 L 6.015625 0 L 7.5625 0 Z M 4.671875 -4.34375 "/>
</symbol>
<symbol overflow="visible" id="glyph1-0">
<path style="stroke:none;" d=""/>
</symbol>
<symbol overflow="visible" id="glyph1-1">
<path style="stroke:none;" d="M 6.171875 0 L 6.171875 -6.703125 L 5.109375 -6.703125 L 5.109375 -2.90625 C 5.109375 -1.53125 4.390625 -0.640625 3.28125 -0.640625 C 2.4375 -0.640625 1.890625 -1.15625 1.890625 -1.953125 L 1.890625 -6.703125 L 0.828125 -6.703125 L 0.828125 -1.53125 C 0.828125 -0.421875 1.65625 0.296875 2.96875 0.296875 C 3.953125 0.296875 4.578125 -0.046875 5.203125 -0.9375 L 5.203125 0 Z M 6.171875 0 "/>
</symbol>
<symbol overflow="visible" id="glyph1-2">
<path style="stroke:none;" d="M 0.890625 -6.703125 L 0.890625 0 L 1.96875 0 L 1.96875 -3.703125 C 1.96875 -5.0625 2.6875 -5.96875 3.78125 -5.96875 C 4.625 -5.96875 5.171875 -5.453125 5.171875 -4.640625 L 5.171875 0 L 6.234375 0 L 6.234375 -5.0625 C 6.234375 -6.1875 5.40625 -6.890625 4.109375 -6.890625 C 3.109375 -6.890625 2.46875 -6.515625 1.875 -5.578125 L 1.875 -6.703125 Z M 0.890625 -6.703125 "/>
</symbol>
<symbol overflow="visible" id="glyph1-3">
<path style="stroke:none;" d="M 1.921875 -6.703125 L 0.859375 -6.703125 L 0.859375 0 L 1.921875 0 Z M 1.921875 -9.328125 L 0.84375 -9.328125 L 0.84375 -7.984375 L 1.921875 -7.984375 Z M 1.921875 -9.328125 "/>
</symbol>
<symbol overflow="visible" id="glyph1-4">
<path style="stroke:none;" d="M 3.25 -6.703125 L 2.15625 -6.703125 L 2.15625 -8.546875 L 1.09375 -8.546875 L 1.09375 -6.703125 L 0.171875 -6.703125 L 0.171875 -5.828125 L 1.09375 -5.828125 L 1.09375 -0.765625 C 1.09375 -0.078125 1.546875 0.296875 2.375 0.296875 C 2.65625 0.296875 2.890625 0.265625 3.25 0.203125 L 3.25 -0.6875 C 3.09375 -0.65625 2.953125 -0.640625 2.734375 -0.640625 C 2.28125 -0.640625 2.15625 -0.765625 2.15625 -1.234375 L 2.15625 -5.828125 L 3.25 -5.828125 Z M 3.25 -6.703125 "/>
</symbol>
<symbol overflow="visible" id="glyph1-5">
<path style="stroke:none;" d=""/>
</symbol>
<symbol overflow="visible" id="glyph1-6">
<path style="stroke:none;" d="M 6.328125 -9.328125 L 5.265625 -9.328125 L 5.265625 -5.859375 C 4.828125 -6.546875 4.109375 -6.890625 3.21875 -6.890625 C 1.46875 -6.890625 0.328125 -5.5 0.328125 -3.359375 C 0.328125 -1.09375 1.4375 0.296875 3.25 0.296875 C 4.171875 0.296875 4.8125 -0.046875 5.390625 -0.890625 L 5.390625 0 L 6.328125 0 Z M 3.390625 -5.90625 C 4.546875 -5.90625 5.265625 -4.890625 5.265625 -3.28125 C 5.265625 -1.734375 4.53125 -0.703125 3.40625 -0.703125 C 2.234375 -0.703125 1.453125 -1.734375 1.453125 -3.296875 C 1.453125 -4.859375 2.234375 -5.90625 3.390625 -5.90625 Z M 3.390625 -5.90625 "/>
</symbol>
<symbol overflow="visible" id="glyph1-7">
<path style="stroke:none;" d="M 0.890625 -6.703125 L 0.890625 0 L 1.953125 0 L 1.953125 -3.484375 C 1.96875 -5.09375 2.640625 -5.8125 4.109375 -5.765625 L 4.109375 -6.859375 C 3.921875 -6.890625 3.828125 -6.890625 3.703125 -6.890625 C 3 -6.890625 2.484375 -6.484375 1.875 -5.484375 L 1.875 -6.703125 Z M 0.890625 -6.703125 "/>
</symbol>
<symbol overflow="visible" id="glyph1-8">
<path style="stroke:none;" d="M 6.5625 -3 C 6.5625 -4.015625 6.484375 -4.625 6.296875 -5.125 C 5.859375 -6.234375 4.84375 -6.890625 3.578125 -6.890625 C 1.71875 -6.890625 0.515625 -5.484375 0.515625 -3.265625 C 0.515625 -1.046875 1.65625 0.296875 3.5625 0.296875 C 5.09375 0.296875 6.15625 -0.578125 6.421875 -2.03125 L 5.34375 -2.03125 C 5.0625 -1.15625 4.453125 -0.6875 3.59375 -0.6875 C 2.921875 -0.6875 2.34375 -1 1.984375 -1.5625 C 1.734375 -1.9375 1.640625 -2.328125 1.625 -3 Z M 1.65625 -3.859375 C 1.734375 -5.109375 2.5 -5.90625 3.578125 -5.90625 C 4.65625 -5.90625 5.40625 -5.0625 5.40625 -3.859375 Z M 1.65625 -3.859375 "/>
</symbol>
<symbol overflow="visible" id="glyph1-9">
<path style="stroke:none;" d="M 6.03125 -4.453125 C 5.96875 -5.109375 5.828125 -5.53125 5.578125 -5.90625 C 5.125 -6.53125 4.3125 -6.890625 3.375 -6.890625 C 1.5625 -6.890625 0.390625 -5.46875 0.390625 -3.234375 C 0.390625 -1.078125 1.546875 0.296875 3.359375 0.296875 C 4.96875 0.296875 5.96875 -0.671875 6.109375 -2.296875 L 5.03125 -2.296875 C 4.84375 -1.234375 4.296875 -0.6875 3.390625 -0.6875 C 2.21875 -0.6875 1.515625 -1.65625 1.515625 -3.234375 C 1.515625 -4.90625 2.203125 -5.90625 3.359375 -5.90625 C 4.265625 -5.90625 4.828125 -5.390625 4.953125 -4.453125 Z M 6.03125 -4.453125 "/>
</symbol>
<symbol overflow="visible" id="glyph1-10">
<path style="stroke:none;" d="M 3.484375 -6.890625 C 1.59375 -6.890625 0.453125 -5.546875 0.453125 -3.296875 C 0.453125 -1.03125 1.59375 0.296875 3.5 0.296875 C 5.390625 0.296875 6.53125 -1.046875 6.53125 -3.25 C 6.53125 -5.578125 5.421875 -6.890625 3.484375 -6.890625 Z M 3.5 -5.90625 C 4.703125 -5.90625 5.40625 -4.921875 5.40625 -3.265625 C 5.40625 -1.671875 4.671875 -0.6875 3.5 -0.6875 C 2.296875 -0.6875 1.578125 -1.671875 1.578125 -3.296875 C 1.578125 -4.921875 2.296875 -5.90625 3.5 -5.90625 Z M 3.5 -5.90625 "/>
</symbol>
<symbol overflow="visible" id="glyph1-11">
<path style="stroke:none;" d="M 0.6875 2.796875 L 1.765625 2.796875 L 1.765625 -0.703125 C 2.328125 -0.015625 2.953125 0.296875 3.828125 0.296875 C 5.5625 0.296875 6.6875 -1.09375 6.6875 -3.234375 C 6.6875 -5.484375 5.59375 -6.890625 3.8125 -6.890625 C 2.90625 -6.890625 2.171875 -6.484375 1.671875 -5.6875 L 1.671875 -6.703125 L 0.6875 -6.703125 Z M 3.640625 -5.90625 C 4.8125 -5.90625 5.578125 -4.859375 5.578125 -3.265625 C 5.578125 -1.734375 4.796875 -0.703125 3.640625 -0.703125 C 2.5 -0.703125 1.765625 -1.734375 1.765625 -3.296875 C 1.765625 -4.875 2.5 -5.90625 3.640625 -5.90625 Z M 3.640625 -5.90625 "/>
</symbol>
<symbol overflow="visible" id="glyph1-12">
<path style="stroke:none;" d="M 0.890625 -6.703125 L 0.890625 0.96875 C 0.890625 1.640625 0.6875 1.859375 0.03125 1.859375 C -0.046875 1.859375 -0.09375 1.859375 -0.234375 1.84375 L -0.234375 2.75 C -0.109375 2.78125 -0.03125 2.796875 0.125 2.796875 C 1.328125 2.796875 1.953125 2.3125 1.953125 1.390625 L 1.953125 -6.703125 Z M 1.953125 -9.328125 L 0.890625 -9.328125 L 0.890625 -7.984375 L 1.953125 -7.984375 Z M 1.953125 -9.328125 "/>
</symbol>
</g>
<clipPath id="clip1">
  <path d="M 72.960938 230 L 452.640625 230 L 452.640625 232 L 72.960938 232 Z M 72.960938 230 "/>
</clipPath>
<clipPath id="clip2">
  <path d="M 176 40.320312 L 177 40.320312 L 177 248.800781 L 176 248.800781 Z M 176 40.320312 "/>
</clipPath>
<clipPath id="clip3">
  <path d="M 72.960938 40.320312 L 452.640625 40.320312 L 452.640625 248.800781 L 72.960938 248.800781 Z M 72.960938 40.320312 "/>
</clipPath>
</defs>
<g id="surface126">
<rect x="0" y="0" width="468" height="316" style="fill:rgb(98.039216%,97.647059%,96.078431%);fill-opacity:1;stroke:none;"/>
<path style="fill:none;stroke-width:0.75;stroke-linecap:round;stroke-linejoin:round;stroke:rgb(9.411765%,16.862745%,22.745098%);stroke-opacity:1;stroke-miterlimit:10;" d="M 74.84375 248.800781 L 430.4375 248.800781 "/>
<path style="fill:none;stroke-width:0.75;stroke-linecap:round;stroke-linejoin:round;stroke:rgb(9.411765%,16.862745%,22.745098%);stroke-opacity:1;stroke-miterlimit:10;" d="M 74.84375 248.800781 L 74.84375 258.398438 "/>
<path style="fill:none;stroke-width:0.75;stroke-linecap:round;stroke-linejoin:round;stroke:rgb(9.411765%,16.862745%,22.745098%);stroke-opacity:1;stroke-miterlimit:10;" d="M 125.640625 248.800781 L 125.640625 258.398438 "/>
<path style="fill:none;stroke-width:0.75;stroke-linecap:round;stroke-linejoin:round;stroke:rgb(9.411765%,16.862745%,22.745098%);stroke-opacity:1;stroke-miterlimit:10;" d="M 176.441406 248.800781 L 176.441406 258.398438 "/>
<path style="fill:none;stroke-width:0.75;stroke-linecap:round;stroke-linejoin:round;stroke:rgb(9.411765%,16.862745%,22.745098%);stroke-opacity:1;stroke-miterlimit:10;" d="M 227.242188 248.800781 L 227.242188 258.398438 "/>
<path style="fill:none;stroke-width:0.75;stroke-linecap:round;stroke-linejoin:round;stroke:rgb(9.411765%,16.862745%,22.745098%);stroke-opacity:1;stroke-miterlimit:10;" d="M 278.039062 248.800781 L 278.039062 258.398438 "/>
<path style="fill:none;stroke-width:0.75;stroke-linecap:round;stroke-linejoin:round;stroke:rgb(9.411765%,16.862745%,22.745098%);stroke-opacity:1;stroke-miterlimit:10;" d="M 328.839844 248.800781 L 328.839844 258.398438 "/>
<path style="fill:none;stroke-width:0.75;stroke-linecap:round;stroke-linejoin:round;stroke:rgb(9.411765%,16.862745%,22.745098%);stroke-opacity:1;stroke-miterlimit:10;" d="M 379.636719 248.800781 L 379.636719 258.398438 "/>
<path style="fill:none;stroke-width:0.75;stroke-linecap:round;stroke-linejoin:round;stroke:rgb(9.411765%,16.862745%,22.745098%);stroke-opacity:1;stroke-miterlimit:10;" d="M 430.4375 248.800781 L 430.4375 258.398438 "/>
<g style="fill:rgb(9.411765%,16.862745%,22.745098%);fill-opacity:1;">
  <use xlink:href="#glyph0-1" x="67.84375" y="275.34375"/>
  <use xlink:href="#glyph0-2" x="72.84375" y="275.34375"/>
</g>
<g style="fill:rgb(9.411765%,16.862745%,22.745098%);fill-opacity:1;">
  <use xlink:href="#glyph0-1" x="118.640625" y="275.34375"/>
  <use xlink:href="#glyph0-3" x="123.640625" y="275.34375"/>
</g>
<g style="fill:rgb(9.411765%,16.862745%,22.745098%);fill-opacity:1;">
  <use xlink:href="#glyph0-4" x="171.941406" y="275.34375"/>
</g>
<g style="fill:rgb(9.411765%,16.862745%,22.745098%);fill-opacity:1;">
  <use xlink:href="#glyph0-3" x="222.742188" y="275.34375"/>
</g>
<g style="fill:rgb(9.411765%,16.862745%,22.745098%);fill-opacity:1;">
  <use xlink:href="#glyph0-2" x="273.539062" y="275.34375"/>
</g>
<g style="fill:rgb(9.411765%,16.862745%,22.745098%);fill-opacity:1;">
  <use xlink:href="#glyph0-5" x="324.339844" y="275.34375"/>
</g>
<g style="fill:rgb(9.411765%,16.862745%,22.745098%);fill-opacity:1;">
  <use xlink:href="#glyph0-6" x="375.136719" y="275.34375"/>
</g>
<g style="fill:rgb(9.411765%,16.862745%,22.745098%);fill-opacity:1;">
  <use xlink:href="#glyph0-7" x="425.9375" y="275.34375"/>
</g>
<path style="fill:none;stroke-width:0.75;stroke-linecap:round;stroke-linejoin:round;stroke:rgb(9.411765%,16.862745%,22.745098%);stroke-opacity:1;stroke-miterlimit:10;" d="M 72.960938 230.917969 L 72.960938 78.519531 "/>
<path style="fill:none;stroke-width:0.75;stroke-linecap:round;stroke-linejoin:round;stroke:rgb(9.411765%,16.862745%,22.745098%);stroke-opacity:1;stroke-miterlimit:10;" d="M 72.960938 230.917969 L 63.359375 230.917969 "/>
<path style="fill:none;stroke-width:0.75;stroke-linecap:round;stroke-linejoin:round;stroke:rgb(9.411765%,16.862745%,22.745098%);stroke-opacity:1;stroke-miterlimit:10;" d="M 72.960938 180.121094 L 63.359375 180.121094 "/>
<path style="fill:none;stroke-width:0.75;stroke-linecap:round;stroke-linejoin:round;stroke:rgb(9.411765%,16.862745%,22.745098%);stroke-opacity:1;stroke-miterlimit:10;" d="M 72.960938 129.320312 L 63.359375 129.320312 "/>
<path style="fill:none;stroke-width:0.75;stroke-linecap:round;stroke-linejoin:round;stroke:rgb(9.411765%,16.862745%,22.745098%);stroke-opacity:1;stroke-miterlimit:10;" d="M 72.960938 78.519531 L 63.359375 78.519531 "/>
<g style="fill:rgb(9.411765%,16.862745%,22.745098%);fill-opacity:1;">
  <use xlink:href="#glyph0-4" x="52.441406" y="236.582031"/>
</g>
<g style="fill:rgb(9.411765%,16.862745%,22.745098%);fill-opacity:1;">
  <use xlink:href="#glyph0-3" x="52.441406" y="185.785156"/>
</g>
<g style="fill:rgb(9.411765%,16.862745%,22.745098%);fill-opacity:1;">
  <use xlink:href="#glyph0-2" x="52.441406" y="134.984375"/>
</g>
<g style="fill:rgb(9.411765%,16.862745%,22.745098%);fill-opacity:1;">
  <use xlink:href="#glyph0-5" x="52.441406" y="84.183594"/>
</g>
<path style="fill:none;stroke-width:0.75;stroke-linecap:round;stroke-linejoin:round;stroke:rgb(9.411765%,16.862745%,22.745098%);stroke-opacity:1;stroke-miterlimit:10;" d="M 72.960938 40.320312 L 72.960938 248.800781 L 452.640625 248.800781 "/>
<g clip-path="url(#clip1)" clip-rule="nonzero">
<path style="fill:none;stroke-width:0.75;stroke-linecap:round;stroke-linejoin:round;stroke:rgb(86.27451%,89.411765%,89.803922%);stroke-opacity:1;stroke-miterlimit:10;" d="M 72.960938 230.917969 L 452.640625 230.917969 "/>
</g>
<g clip-path="url(#clip2)" clip-rule="nonzero">
<path style="fill:none;stroke-width:0.75;stroke-linecap:round;stroke-linejoin:round;stroke:rgb(86.27451%,89.411765%,89.803922%);stroke-opacity:1;stroke-miterlimit:10;" d="M 176.441406 248.800781 L 176.441406 40.320312 "/>
</g>
<g clip-path="url(#clip3)" clip-rule="nonzero">
<path style="fill:none;stroke-width:0.75;stroke-linecap:round;stroke-linejoin:round;stroke:rgb(58.039216%,63.921569%,67.45098%);stroke-opacity:1;stroke-miterlimit:10;" d="M 72.960938 334.398438 L 452.640625 -45.28125 "/>
</g>
<path style="fill:none;stroke-width:2.25;stroke-linecap:round;stroke-linejoin:round;stroke:rgb(74.117647%,34.117647%,11.372549%);stroke-opacity:1;stroke-miterlimit:10;" d="M 176.441406 230.917969 L 227.242188 78.519531 "/>
<path style="fill:none;stroke-width:2.25;stroke-linecap:round;stroke-linejoin:round;stroke:rgb(74.117647%,34.117647%,11.372549%);stroke-opacity:1;stroke-miterlimit:10;" d="M 229.117188 87.691406 L 227.242188 78.519531 L 220.238281 84.730469 "/>
<path style="fill:none;stroke-width:2.25;stroke-linecap:round;stroke-linejoin:round;stroke:rgb(0%,49.019608%,54.901961%);stroke-opacity:1;stroke-miterlimit:10;" d="M 176.441406 230.917969 L 212.363281 195 "/>
<path style="fill:none;stroke-width:2.25;stroke-linecap:round;stroke-linejoin:round;stroke:rgb(0%,49.019608%,54.901961%);stroke-opacity:1;stroke-miterlimit:10;" d="M 209.9375 204.039062 L 212.363281 195 L 203.320312 197.421875 "/>
<path style="fill:none;stroke-width:1.5;stroke-linecap:round;stroke-linejoin:round;stroke:rgb(45.882353%,35.686275%,61.176471%);stroke-opacity:1;stroke-miterlimit:10;" d="M 176.441406 230.917969 L 278.039062 129.320312 "/>
<path style="fill:none;stroke-width:1.5;stroke-linecap:round;stroke-linejoin:round;stroke:rgb(45.882353%,35.686275%,61.176471%);stroke-opacity:1;stroke-miterlimit:10;" d="M 275.617188 138.359375 L 278.039062 129.320312 L 269 131.742188 "/>
<path style="fill:none;stroke-width:1.5;stroke-linecap:round;stroke-linejoin:round;stroke:rgb(74.117647%,34.117647%,11.372549%);stroke-opacity:1;stroke-dasharray:6,6;stroke-miterlimit:10;" d="M 227.242188 78.519531 L 278.039062 129.320312 "/>
<g style="fill:rgb(74.117647%,34.117647%,11.372549%);fill-opacity:1;">
  <use xlink:href="#glyph0-8" x="204.5625" y="77.105469"/>
</g>
<g style="fill:rgb(0%,49.019608%,54.901961%);fill-opacity:1;">
  <use xlink:href="#glyph1-1" x="226.679688" y="213.264648"/>
  <use xlink:href="#glyph1-2" x="233.679688" y="213.264648"/>
  <use xlink:href="#glyph1-3" x="240.679688" y="213.264648"/>
  <use xlink:href="#glyph1-4" x="243.679688" y="213.264648"/>
  <use xlink:href="#glyph1-5" x="247.679688" y="213.264648"/>
  <use xlink:href="#glyph1-6" x="251.679688" y="213.264648"/>
  <use xlink:href="#glyph1-3" x="258.679688" y="213.264648"/>
  <use xlink:href="#glyph1-7" x="261.679688" y="213.264648"/>
  <use xlink:href="#glyph1-8" x="265.679688" y="213.264648"/>
  <use xlink:href="#glyph1-9" x="272.679688" y="213.264648"/>
  <use xlink:href="#glyph1-4" x="279.679688" y="213.264648"/>
  <use xlink:href="#glyph1-3" x="282.679688" y="213.264648"/>
  <use xlink:href="#glyph1-10" x="285.679688" y="213.264648"/>
  <use xlink:href="#glyph1-2" x="292.679688" y="213.264648"/>
  <use xlink:href="#glyph1-5" x="299.679688" y="213.264648"/>
  <use xlink:href="#glyph1-1" x="303.679688" y="213.264648"/>
</g>
<g style="fill:rgb(45.882353%,35.686275%,61.176471%);fill-opacity:1;">
  <use xlink:href="#glyph1-11" x="292.71875" y="126.905273"/>
  <use xlink:href="#glyph1-7" x="299.71875" y="126.905273"/>
  <use xlink:href="#glyph1-10" x="303.71875" y="126.905273"/>
  <use xlink:href="#glyph1-12" x="310.71875" y="126.905273"/>
  <use xlink:href="#glyph1-8" x="313.71875" y="126.905273"/>
  <use xlink:href="#glyph1-9" x="320.71875" y="126.905273"/>
  <use xlink:href="#glyph1-4" x="327.71875" y="126.905273"/>
  <use xlink:href="#glyph1-3" x="330.71875" y="126.905273"/>
  <use xlink:href="#glyph1-10" x="333.71875" y="126.905273"/>
  <use xlink:href="#glyph1-2" x="340.71875" y="126.905273"/>
</g>
</g>
</svg>
